<svg xmlns="http://www.w3.org/2000/svg" xmlns:xlink="http://www.w3.org/1999/xlink" width="122" height="122"><defs><circle id="a" cx="60" cy="60" r="60"/><linearGradient id="b" x1="50%" x2="50%" y1="0%" y2="100%"><stop offset="0%" stop-color="#5B79A2"/><stop offset="100%" stop-color="#2E4469"/></linearGradient><radialGradient id="d" cx="52.101%" cy="30.594%" r="256.183%" fx="52.101%" fy="30.594%" gradientTransform="matrix(-.19047 0 0 -.12688 .62 .345)"><stop offset="0%"/><stop offset="100%" stop-opacity=".002"/></radialGradient><linearGradient id="e" x1="9.479%" x2="61.099%" y1="-18.776%" y2="100%"><stop offset="0%" stop-color="#5B79A2"/><stop offset="100%" stop-color="#2E4469"/></linearGradient><linearGradient id="f" x1="0%" y1="50%" y2="50%"><stop offset="0%" stop-color="#5B79A2"/><stop offset="100%" stop-color="#2E4469"/></linearGradient><linearGradient id="g" x1="18.864%" x2="56.143%" y1="0%" y2="40.886%"><stop offset="0%" stop-color="#76E1FF"/><stop offset="100%" stop-color="#637BFF" stop-opacity="0"/></linearGradient><linearGradient id="h" x1="16.259%" x2="39.136%" y1="6.036%" y2="65.423%"><stop offset="0%" stop-color="#76E1FF"/><stop offset="100%" stop-color="#637BFF" stop-opacity="0"/></linearGradient><linearGradient id="i" x1="-11.854%" x2="56.143%" y1="58.272%" y2="40.886%"><stop offset="0%" stop-color="#76E1FF"/><stop offset="100%" stop-color="#637BFF" stop-opacity="0"/></linearGradient><linearGradient id="j" x1="16.341%" y1="82.585%" y2="19.077%"><stop offset="0%" stop-opacity="0"/><stop offset="100%" stop-opacity=".372"/></linearGradient><filter id="k" width="128.4%" height="130%" x="-14.2%" y="-15%" filterUnits="objectBoundingBox"><feGaussianBlur in="SourceGraphic" stdDeviation="1"/></filter><filter id="l" width="132%" height="166.6%" x="-16%" y="-33.3%" filterUnits="objectBoundingBox"><feGaussianBlur in="SourceGraphic" stdDeviation="1"/></filter><linearGradient id="m" x1="67.252%" x2="-34.666%" y1="22.034%" y2="197.643%"><stop offset="0%" stop-color="#76E1FF"/><stop offset="100%" stop-color="#637BFF" stop-opacity="0"/></linearGradient><filter id="n" width="220%" height="220%" x="-60%" y="-60%" filterUnits="objectBoundingBox"><feGaussianBlur in="SourceGraphic" stdDeviation="2"/></filter><linearGradient id="o" x1="50%" x2="50%" y1="0%" y2="97.483%"><stop offset="0%" stop-color="#21C8F6"/><stop offset="100%" stop-color="#637BFF"/></linearGradient><linearGradient id="p" x1="100%" x2="56.143%" y1="16.947%" y2="40.886%"><stop offset="0%" stop-color="#76E1FF" stop-opacity=".638"/><stop offset="100%" stop-color="#637BFF" stop-opacity="0"/></linearGradient><linearGradient id="q" x1="24.379%" x2="84.171%" y1="5.536%" y2="97.907%"><stop offset="0%" stop-color="#76E1FF"/><stop offset="100%" stop-color="#637BFF" stop-opacity="0"/></linearGradient><circle id="r" cx="60" cy="60" r="60"/></defs><g fill="none" fill-rule="evenodd" transform="translate(1 1)"><mask id="c" fill="#fff"><use xlink:href="#a"/></mask><use fill="#000" fill-opacity=".152" xlink:href="#a"/><rect width="116" height="38" x="3" y="83" fill="url(#b)" mask="url(#c)" rx="1.4"/><ellipse cx="52.08" cy="101.513" fill="url(#d)" mask="url(#c)" opacity=".298" rx="40.95" ry="7.8" transform="rotate(1 52.08 101.513)"/><g mask="url(#c)"><path fill="url(#e)" fill-rule="nonzero" d="M61.998 45.58l-1.476 1.237c-3.264-1.82-7.066-2.917-11.126-2.917-4.689 0-9.034 1.462-12.602 3.814v-2.133c-4.883 4.866-17.09 14.6-14.649 24.333 1.241 4.947 5.004 6.12 8.405 5.442 1.991 4.33 4.197 7.477 4.197 7.477h29.299s2.11-3.233 4.066-7.503c3.435.735 7.279-.406 8.535-5.416 2.442-9.733-9.766-19.467-14.649-24.333z" transform="translate(14 16)"/><path fill="url(#f)" fill-rule="nonzero" d="M55.432 73.1c0 5.375 3.886 9.733 8.682 9.733 4.795 0 8.681-4.358 8.681-9.733 0-5.375-3.886-9.733-8.681-9.733-4.796 0-8.682 4.358-8.682 9.733z" transform="translate(14 16)"/><path fill="#2E4469" fill-opacity=".3" fill-rule="nonzero" d="M74.451 91.804a3.792 3.792 0 0 0 3.799 3.784 3.791 3.791 0 0 0 3.798-3.784c0-2.09-1.7-3.785-3.798-3.785a3.792 3.792 0 0 0-3.799 3.785z"/><path fill="url(#f)" fill-rule="nonzero" d="M25.998 73.1c0 5.375 3.886 9.733 8.681 9.733 4.796 0 8.682-4.358 8.682-9.733 0-5.375-3.886-9.733-8.682-9.733-4.795 0-8.681 4.358-8.681 9.733z" transform="translate(14 16)"/><path stroke="url(#g)" stroke-width=".605" d="M25.998 73.1c0 5.375 3.886 9.733 8.681 9.733 4.796 0 8.682-4.358 8.682-9.733 0-5.375-3.886-9.733-8.682-9.733-4.795 0-8.681 4.358-8.681 9.733z" transform="translate(14 16)"/><path fill="#2E4469" fill-opacity=".3" fill-rule="nonzero" d="M45.017 91.804a3.79 3.79 0 0 0 3.798 3.784 3.791 3.791 0 0 0 3.798-3.784c0-2.09-1.7-3.785-3.798-3.785a3.792 3.792 0 0 0-3.798 3.785z"/><g transform="rotate(-11 179.009 -57.709)"><path fill="url(#f)" fill-rule="nonzero" d="M44.513 23.193c0 12.767 9.164 23.117 21.974 23.117s14.985-9.307 17.091-21.9C86.02 9.81 80.518.077 67.708.077c-12.81 0-23.195 10.35-23.195 23.116z"/><path fill="url(#f)" fill-rule="nonzero" d="M44.513 23.193c0 12.767 9.164 23.117 21.974 23.117s14.985-9.307 17.091-21.9C86.02 9.81 80.518.077 67.708.077c-12.81 0-23.195 10.35-23.195 23.116z"/><path fill="#2E4469" fill-opacity=".3" fill-rule="nonzero" d="M66.487 39.01c4.265 0 5.462-1.36 6.321-2.753 1.727-2.797 2.662-7.767 3.545-13.047 1.001-5.985.354-10.853-1.774-13.357-2.105-2.477-5.692-2.477-6.87-2.477-8.752 0-15.871 7.096-15.871 15.817 0 4.409 1.502 8.451 4.23 11.382 2.698 2.901 6.302 4.435 10.42 4.435z"/><path fill="url(#f)" fill-rule="nonzero" d="M39.63 23.193c0 12.767-9.164 23.117-21.974 23.117S2.671 37.003.566 24.41C-1.877 9.81 3.624.077 16.435.077c12.81 0 23.194 10.35 23.194 23.116z"/><path stroke="url(#h)" stroke-width=".605" d="M39.63 23.193c0 12.767-9.164 23.117-21.974 23.117S2.671 37.003.566 24.41C-1.877 9.81 3.624.077 16.435.077c12.81 0 23.194 10.35 23.194 23.116z"/><path fill="#2E4469" fill-opacity=".3" fill-rule="nonzero" d="M17.656 39.01c-4.265 0-5.461-1.36-6.321-2.753C9.609 33.46 8.673 28.49 7.79 23.21c-1-5.985-.354-10.853 1.775-13.357 2.104-2.477 5.692-2.477 6.87-2.477 8.751 0 15.87 7.096 15.87 15.817 0 4.409-1.502 8.451-4.229 11.382-2.699 2.901-6.302 4.435-10.42 4.435z"/><path fill="url(#f)" fill-rule="nonzero" d="M52 48.338c-2.197-.73-2.253-2.832-.243-5.191a400.026 400.026 0 0 0 7.037-8.543c3.274-3.4 5.252-7.808 5.252-12.627 0-10.751-9.838-19.467-21.974-19.467-12.137 0-21.974 8.716-21.974 19.467 0 5.93 2.993 11.239 7.713 14.81.199 2.29 1.03 7.713 4.494 11.956 3.213 3.933 9.574 7.3 14.65 7.3 12.208 0 14.65-7.3 14.65-7.3L56.72 46.31s-2.404 2.797-4.72 2.028z"/><path stroke="url(#i)" stroke-width=".605" d="M52 48.338c-2.197-.73-2.253-2.832-.243-5.191a400.026 400.026 0 0 0 7.037-8.543c3.274-3.4 5.252-7.808 5.252-12.627 0-10.751-9.838-19.467-21.974-19.467-12.137 0-21.974 8.716-21.974 19.467 0 5.93 2.993 11.239 7.713 14.81.199 2.29 1.03 7.713 4.494 11.956 3.213 3.933 9.574 7.3 14.65 7.3 12.208 0 14.65-7.3 14.65-7.3L56.72 46.31s-2.404 2.797-4.72 2.028z"/><path fill="url(#j)" d="M32.907 3.966l8.112-2.203-21.138 19.988 5.212-12.389z" filter="url(#k)" opacity=".427"/><path fill="url(#j)" d="M42.447 6.678l3.208-1.91 14.923 5.434.648 3.577z" filter="url(#l)" opacity=".5"/><ellipse cx="29.864" cy="26.843" fill="#2E4469" fill-rule="nonzero" rx="1.831" ry="1.825"/><ellipse cx="54.28" cy="26.843" fill="#2E4469" fill-rule="nonzero" rx="1.831" ry="1.825"/></g></g><g mask="url(#c)"><g transform="rotate(-116 41.75 34.952)"><path stroke="url(#m)" stroke-width="2" d="M.763 105.628l49.365-65.093L38.335 4.486l-28.36 15.35"/><circle cx="10" cy="19" r="5" fill="#328AF1" filter="url(#n)"/><g transform="rotate(111 14.629 37.807)"><circle cx="4" cy="4" r="4" fill="url(#o)"/><path fill="#FFF" fill-opacity=".2" d="M1.524 6.857a3.81 3.81 0 1 1 5.334-5.334 3.81 3.81 0 0 0-5.334 5.334z"/></g><g transform="rotate(99 20.573 18.946)"><circle cx="3.5" cy="3.5" r="3.5" fill="url(#o)"/><path fill="#FFF" fill-opacity=".2" d="M1.333 6A3.333 3.333 0 1 1 6 1.333 3.333 3.333 0 0 0 1.333 6z"/></g><g transform="rotate(90 -1.5 15)"><circle cx="2.5" cy="3" r="2.5" fill="url(#o)"/><path fill="#FFF" fill-opacity=".2" d="M.952 4.786a2.38 2.38 0 1 1 3.333-3.333A2.38 2.38 0 0 0 .953 4.785z"/></g></g></g><g fill-rule="nonzero" mask="url(#c)"><path fill="#76E2FF" d="M26.14 87.475a3.61 3.61 0 0 1-1.651 3.036h14.806c1.258 0 2.956-.858 2.956-3.036s-1.698-3.036-2.956-3.036H24.49a3.61 3.61 0 0 1 1.651 3.036z"/><path fill="url(#f)" d="M.043.65h16.1a3.824 3.824 0 0 1 3.814 3.825A3.824 3.824 0 0 1 16.142 8.3H.043V6.813h16.1a2.337 2.337 0 1 0 0-4.675H.042V.65z" transform="translate(23 83)"/><path stroke="url(#p)" stroke-width=".3" d="M.043.65h16.1a3.824 3.824 0 0 1 3.814 3.825A3.824 3.824 0 0 1 16.142 8.3H.043V6.813h16.1a2.337 2.337 0 1 0 0-4.675H.042V.65z" transform="translate(23 83)"/><path fill="#76E2FF" d="M38.11 95.036a3.61 3.61 0 0 0 1.652 3.036H24.955c-1.257 0-2.955-.858-2.955-3.036S23.698 92 24.955 92h14.807a3.61 3.61 0 0 0-1.652 3.036z"/><path fill="url(#f)" d="M19.913 0H3.814A3.824 3.824 0 0 0 0 3.825 3.824 3.824 0 0 0 3.814 7.65h16.1V6.163h-16.1a2.337 2.337 0 1 1 0-4.675h16.1V0z" transform="translate(22 91)"/><path stroke="url(#p)" stroke-width=".3" d="M19.913 0H3.814A3.824 3.824 0 0 0 0 3.825 3.824 3.824 0 0 0 3.814 7.65h16.1V6.163h-16.1a2.337 2.337 0 1 1 0-4.675h16.1V0z" transform="translate(22 91)"/><path fill="#76E2FF" d="M36.86 79.825a3.61 3.61 0 0 0 1.651 3.036H23.705c-1.258 0-2.956-.858-2.956-3.036s1.698-3.036 2.956-3.036H38.51a3.61 3.61 0 0 0-1.651 3.036z"/><path fill="url(#f)" d="M19.957 0h-16.1A3.824 3.824 0 0 0 .044 3.825 3.824 3.824 0 0 0 3.858 7.65h16.099V6.162h-16.1a2.337 2.337 0 1 1 0-4.675h16.1V0z" transform="translate(20 76)"/><path stroke="url(#p)" stroke-width=".3" d="M19.957 0h-16.1A3.824 3.824 0 0 0 .044 3.825 3.824 3.824 0 0 0 3.858 7.65h16.099V6.162h-16.1a2.337 2.337 0 1 1 0-4.675h16.1V0z" transform="translate(20 76)"/></g><use stroke="url(#q)" xlink:href="#r"/></g></svg>
